<svg width="32" height="32" viewBox="0 0 32 32" fill="none" xmlns="http://www.w3.org/2000/svg">
<path d="M12.2938 19.7063C11.9032 19.3156 11.9032 18.6812 12.2938 18.2906C12.6845 17.9 13.3188 17.9 13.7095 18.2906L16.0001 20.5844V11C16.0001 10.4469 15.5532 10 15.0001 10H10.0001C9.44697 10 9.0001 9.55313 9.0001 9C9.0001 8.44687 9.44697 8 10.0001 8H15.0001C16.6563 8 18.0001 9.34375 18.0001 11V20.5844L20.2938 18.2906C20.6845 17.9 21.3188 17.9 21.7095 18.2906C22.1001 18.6812 22.1001 19.3156 21.7095 19.7063L17.7095 23.7063C17.3188 24.0969 16.6845 24.0969 16.2938 23.7063L12.2938 19.7063Z" fill="#0E0E0E"/>
</svg>
