<svg width="418" height="418" viewBox="0 0 418 418" fill="none" xmlns="http://www.w3.org/2000/svg">
<path d="M136.815 225.528V192.472H157.41V195.825H140.542V207.347H156.932V210.653H140.542V222.175H157.41V225.528H136.815Z" fill="#0E0E0E"/>
<path d="M165.166 216.272C165.788 220.333 168.941 222.694 173.911 222.694C178.641 222.694 181.843 220.286 181.843 216.981C181.843 207.819 162.299 213.014 162.299 200.878C162.299 195.825 167.03 192 173.481 192C180.027 192 184.471 195.778 185.283 200.972L181.509 201.728C180.935 197.997 177.925 195.258 173.433 195.258C169.132 195.258 166.122 197.572 166.122 200.736C166.122 209.519 185.666 204.183 185.666 216.886C185.666 222.269 180.457 226 173.815 226C167.03 226 162.204 222.553 161.439 217.028L165.166 216.272Z" fill="#0E0E0E"/>
<path d="M194.285 216.272C194.906 220.333 198.06 222.694 203.029 222.694C207.76 222.694 210.961 220.286 210.961 216.981C210.961 207.819 191.418 213.014 191.418 200.878C191.418 195.825 196.148 192 202.599 192C209.146 192 213.59 195.778 214.402 200.972L210.627 201.728C210.053 197.997 207.043 195.258 202.551 195.258C198.251 195.258 195.24 197.572 195.24 200.736C195.24 209.519 214.784 204.183 214.784 216.886C214.784 222.269 209.576 226 202.934 226C196.148 226 191.322 222.553 190.558 217.028L194.285 216.272Z" fill="#0E0E0E"/>
<path d="M220.297 225.528V192.472H240.892V195.825H224.024V207.347H240.414V210.653H224.024V222.175H240.892V225.528H220.297Z" fill="#0E0E0E"/>
<path d="M246.196 225.528V192.472H253.507L270.709 224.772V192.472H274.436V225.528H267.125L249.923 193.275V225.528H246.196Z" fill="#0E0E0E"/>
<path d="M279.585 209C279.585 199.414 287.135 192 296.93 192C304.337 192 309.88 196.439 312.221 201.539L308.829 202.956C306.774 198.611 302.378 195.4 296.93 195.4C289.333 195.4 283.408 201.35 283.408 209C283.408 216.65 289.333 222.6 296.93 222.6C302.378 222.6 306.774 219.389 308.829 215.044L312.221 216.461C309.88 221.561 304.337 226 296.93 226C287.135 226 279.585 218.586 279.585 209Z" fill="#0E0E0E"/>
<path d="M317.405 225.528V192.472H338V195.825H321.132V207.347H337.522V210.653H321.132V222.175H338V225.528H317.405Z" fill="#0E0E0E"/>
<path d="M100.284 195.827C99.2586 194.801 99.9936 193.063 101.452 193.063H111.209C112.116 193.063 112.852 193.789 112.852 194.686V204.329C112.852 205.77 111.093 206.497 110.055 205.484L105.282 200.827L100.284 195.827Z" fill="#0E0E0E"/>
<path d="M80 214.296C80 212.85 81.7693 212.126 82.8041 213.148L92.5267 222.757C93.5614 223.779 92.8286 225.528 91.3652 225.528H81.6426C80.7354 225.528 80 224.801 80 223.905V214.296Z" fill="#0E0E0E"/>
<path d="M84.811 205.469C82.6728 203.356 82.6728 199.93 84.811 197.817C86.9492 195.704 90.416 195.704 92.5542 197.817L108.041 213.121C110.179 215.234 110.179 218.66 108.041 220.773C105.902 222.886 102.436 222.886 100.297 220.773L84.811 205.469Z" fill="#0E0E0E"/>
</svg>
