<svg width="320" height="150" viewBox="0 0 320 150" fill="none" xmlns="http://www.w3.org/2000/svg">
<path d="M95.0896 89.5833V60.4167H113.609V63.375H98.4412V73.5417H113.179V76.4583H98.4412V86.625H113.609V89.5833H95.0896Z" fill="#0E0E0E"/>
<path d="M120.584 81.4167C121.142 85 123.978 87.0833 128.447 87.0833C132.701 87.0833 135.58 84.9583 135.58 82.0417C135.58 73.9583 118.006 78.5417 118.006 67.8333C118.006 63.375 122.26 60 128.06 60C133.947 60 137.943 63.3333 138.673 67.9167L135.279 68.5833C134.763 65.2917 132.056 62.875 128.017 62.875C124.15 62.875 121.443 64.9167 121.443 67.7083C121.443 75.4583 139.017 70.75 139.017 81.9583C139.017 86.7083 134.334 90 128.361 90C122.26 90 117.92 86.9583 117.232 82.0833L120.584 81.4167Z" fill="#0E0E0E"/>
<path d="M146.768 81.4167C147.326 85 150.162 87.0833 154.631 87.0833C158.885 87.0833 161.764 84.9583 161.764 82.0417C161.764 73.9583 144.19 78.5417 144.19 67.8333C144.19 63.375 148.443 60 154.244 60C160.131 60 164.127 63.3333 164.857 67.9167L161.463 68.5833C160.947 65.2917 158.24 62.875 154.201 62.875C150.334 62.875 147.627 64.9167 147.627 67.7083C147.627 75.4583 165.201 70.75 165.201 81.9583C165.201 86.7083 160.518 90 154.545 90C148.443 90 144.104 86.9583 143.416 82.0833L146.768 81.4167Z" fill="#0E0E0E"/>
<path d="M170.159 89.5833V60.4167H188.678V63.375H173.51V73.5417H188.248V76.4583H173.51V86.625H188.678V89.5833H170.159Z" fill="#0E0E0E"/>
<path d="M193.447 89.5833V60.4167H200.022L215.49 88.9167V60.4167H218.842V89.5833H212.268L196.799 61.125V89.5833H193.447Z" fill="#0E0E0E"/>
<path d="M223.472 75C223.472 66.5417 230.261 60 239.069 60C245.729 60 250.714 63.9167 252.819 68.4167L249.768 69.6667C247.921 65.8333 243.968 63 239.069 63C232.237 63 226.909 68.25 226.909 75C226.909 81.75 232.237 87 239.069 87C243.968 87 247.921 84.1667 249.768 80.3333L252.819 81.5833C250.714 86.0833 245.729 90 239.069 90C230.261 90 223.472 83.4583 223.472 75Z" fill="#0E0E0E"/>
<path d="M257.481 89.5833V60.4167H276V63.375H260.832V73.5417H275.57V76.4583H260.832V86.625H276V89.5833H257.481Z" fill="#0E0E0E"/>
<path d="M62.2395 63.3763C61.3178 62.4715 61.9788 60.9375 63.2903 60.9375H72.0638C72.8796 60.9375 73.5409 61.5788 73.5409 62.3698V70.8786C73.5409 72.1503 71.9593 72.7913 71.0261 71.8978L66.7342 67.7886L62.2395 63.3763Z" fill="#0E0E0E"/>
<path d="M44 79.6731C44 78.3971 45.591 77.7581 46.5215 78.6604L55.2643 87.1383C56.1948 88.0406 55.5358 89.5833 54.2198 89.5833H45.477C44.6613 89.5833 44 88.9421 44 88.151V79.6731Z" fill="#0E0E0E"/>
<path d="M48.3262 71.8845C46.4034 70.02 46.4034 66.9971 48.3262 65.1326C50.2489 63.2681 53.3663 63.2681 55.289 65.1326L69.2147 78.6364C71.1375 80.5009 71.1375 83.5238 69.2147 85.3883C67.292 87.2528 64.1746 87.2528 62.2519 85.3883L48.3262 71.8845Z" fill="#0E0E0E"/>
</svg>
