<svg width="11" height="11" viewBox="0 0 11 11" fill="none" xmlns="http://www.w3.org/2000/svg">
<path d="M6.79176 0.936516C6.44855 0.589072 6.69468 0 7.18305 0H10.45C10.7538 0 11 0.246243 11 0.55V3.81739C11 4.3057 10.4111 4.55184 10.0636 4.20876L8.46542 2.63083L6.79176 0.936516Z" fill="#0E0E0E"/>
<path d="M0 7.19448C0 6.70449 0.592428 6.45909 0.938909 6.80558L4.19443 10.0611C4.54091 10.4076 4.29551 11 3.80552 11H0.55C0.246243 11 0 10.7538 0 10.45V7.19448Z" fill="#0E0E0E"/>
<path d="M1.61092 4.20365C0.894957 3.48769 0.894957 2.32688 1.61092 1.61092C2.32688 0.89496 3.48768 0.89496 4.20364 1.61092L9.38909 6.79637C10.1051 7.51233 10.1051 8.67314 9.38909 9.3891C8.67313 10.1051 7.51233 10.1051 6.79637 9.3891L1.61092 4.20365Z" fill="#0E0E0E"/>
</svg>
