<svg width="16" height="16" viewBox="0 0 16 16" fill="none" xmlns="http://www.w3.org/2000/svg">
<g clip-path="url(#clip0_810_40)">
<path d="M9.17434 3.85138C8.86233 3.53552 9.08608 3 9.53006 3H12.5C12.7762 3 13 3.22386 13 3.5V6.47035C13 6.91427 12.4646 7.13804 12.1487 6.82615L10.6958 5.39166L9.17434 3.85138Z" fill="#FDFAF5"/>
<path d="M4.46447 6.82174C3.8136 6.17087 3.8136 5.11559 4.46447 4.46472C5.11535 3.81384 6.17062 3.81384 6.82149 4.46472L11.5355 9.17876C12.1865 9.82964 12.1865 10.8849 11.5355 11.5358C10.8847 12.1867 9.82939 12.1867 9.17852 11.5358L4.46447 6.82174Z" fill="#FDFAF5"/>
<path d="M3 9.54006C3 9.09462 3.53857 8.87152 3.85355 9.18652L6.81312 12.1461C7.1281 12.4611 6.90501 12.9996 6.45956 12.9996H3.5C3.22386 12.9996 3 12.7758 3 12.4996V9.54006Z" fill="#FDFAF5"/>
</g>
<defs>
<clipPath id="clip0_810_40">
<rect width="10" height="10" fill="white" transform="translate(3 3)"/>
</clipPath>
</defs>
</svg>
