<svg width="87" height="12" viewBox="0 0 87 12" fill="none" xmlns="http://www.w3.org/2000/svg">
<path d="M19.024 11.36V0.16H25.92V1.296H20.272V5.2H25.76V6.32H20.272V10.224H25.92V11.36H19.024Z" fill="#0E0E0E"/>
<path d="M28.5171 8.224C28.7251 9.6 29.7811 10.4 31.4451 10.4C33.0291 10.4 34.1011 9.584 34.1011 8.464C34.1011 5.36 27.5571 7.12 27.5571 3.008C27.5571 1.296 29.1411 0 31.3011 0C33.4931 0 34.9811 1.28 35.2531 3.04L33.9891 3.296C33.7971 2.032 32.7891 1.104 31.2851 1.104C29.8451 1.104 28.8371 1.888 28.8371 2.96C28.8371 5.936 35.3811 4.128 35.3811 8.432C35.3811 10.256 33.6371 11.52 31.4131 11.52C29.1411 11.52 27.5251 10.352 27.2691 8.48L28.5171 8.224Z" fill="#0E0E0E"/>
<path d="M38.2671 8.224C38.4751 9.6 39.5311 10.4 41.1951 10.4C42.7791 10.4 43.8511 9.584 43.8511 8.464C43.8511 5.36 37.3071 7.12 37.3071 3.008C37.3071 1.296 38.8911 0 41.0511 0C43.2431 0 44.7311 1.28 45.0031 3.04L43.7391 3.296C43.5471 2.032 42.5391 1.104 41.0351 1.104C39.5951 1.104 38.5871 1.888 38.5871 2.96C38.5871 5.936 45.1311 4.128 45.1311 8.432C45.1311 10.256 43.3871 11.52 41.1631 11.52C38.8911 11.52 37.2751 10.352 37.0191 8.48L38.2671 8.224Z" fill="#0E0E0E"/>
<path d="M46.9771 11.36V0.16H53.8731V1.296H48.2251V5.2H53.7131V6.32H48.2251V10.224H53.8731V11.36H46.9771Z" fill="#0E0E0E"/>
<path d="M55.649 11.36V0.16H58.097L63.857 11.104V0.16H65.105V11.36H62.657L56.897 0.432V11.36H55.649Z" fill="#0E0E0E"/>
<path d="M66.829 5.76C66.829 2.512 69.357 0 72.637 0C75.117 0 76.973 1.504 77.757 3.232L76.621 3.712C75.933 2.24 74.461 1.152 72.637 1.152C70.093 1.152 68.109 3.168 68.109 5.76C68.109 8.352 70.093 10.368 72.637 10.368C74.461 10.368 75.933 9.28 76.621 7.808L77.757 8.288C76.973 10.016 75.117 11.52 72.637 11.52C69.357 11.52 66.829 9.008 66.829 5.76Z" fill="#0E0E0E"/>
<path d="M79.4928 11.36V0.16H86.3887V1.296H80.7408V5.2H86.2288V6.32H80.7408V10.224H86.3887V11.36H79.4928Z" fill="#0E0E0E"/>
<path d="M6.79176 1.29652C6.44855 0.949073 6.69468 0.360001 7.18305 0.360001H10.45C10.7538 0.360001 11 0.606244 11 0.910001V4.17739C11 4.6657 10.4111 4.91185 10.0636 4.56876L8.46542 2.99083L6.79176 1.29652Z" fill="#0E0E0E"/>
<path d="M0 7.55448C0 7.06449 0.592428 6.8191 0.938909 7.16558L4.19443 10.4211C4.54091 10.7676 4.29551 11.36 3.80552 11.36H0.55C0.246243 11.36 0 11.1138 0 10.81V7.55448Z" fill="#0E0E0E"/>
<path d="M1.61092 4.56365C0.894957 3.84769 0.894957 2.68688 1.61092 1.97092C2.32688 1.25496 3.48768 1.25496 4.20364 1.97092L9.38909 7.15637C10.1051 7.87233 10.1051 9.03314 9.38909 9.7491C8.67313 10.4651 7.51233 10.4651 6.79637 9.7491L1.61092 4.56365Z" fill="#0E0E0E"/>
</svg>
