<svg width="14" height="16" viewBox="0 0 14 16" fill="none" xmlns="http://www.w3.org/2000/svg">
<path d="M14 4C14 5.65625 12.6562 7 11 7C10.0969 7 9.2875 6.6 8.7375 5.96875L5.93437 7.37187C5.97812 7.575 6 7.78438 6 8C6 8.21562 5.97812 8.425 5.93437 8.62813L8.7375 10.0312C9.2875 9.4 10.0969 9 11 9C12.6562 9 14 10.3438 14 12C14 13.6562 12.6562 15 11 15C9.34375 15 8 13.6562 8 12C8 11.7844 8.02188 11.575 8.06563 11.3719L5.2625 9.96875C4.7125 10.6 3.90313 11 3 11C1.34375 11 0 9.65625 0 8C0 6.34375 1.34375 5 3 5C3.90313 5 4.7125 5.4 5.2625 6.03125L8.06563 4.62813C8.02188 4.425 8 4.21563 8 4C8 2.34375 9.34375 1 11 1C12.6562 1 14 2.34375 14 4ZM3 9.5C3.39782 9.5 3.77936 9.34196 4.06066 9.06066C4.34196 8.77936 4.5 8.39782 4.5 8C4.5 7.60218 4.34196 7.22064 4.06066 6.93934C3.77936 6.65804 3.39782 6.5 3 6.5C2.60218 6.5 2.22064 6.65804 1.93934 6.93934C1.65804 7.22064 1.5 7.60218 1.5 8C1.5 8.39782 1.65804 8.77936 1.93934 9.06066C2.22064 9.34196 2.60218 9.5 3 9.5ZM12.5 4C12.5 3.80302 12.4612 3.60796 12.3858 3.42597C12.3104 3.24399 12.1999 3.07863 12.0607 2.93934C11.9214 2.80005 11.756 2.68956 11.574 2.61418C11.392 2.5388 11.197 2.5 11 2.5C10.803 2.5 10.608 2.5388 10.426 2.61418C10.244 2.68956 10.0786 2.80005 9.93934 2.93934C9.80005 3.07863 9.68956 3.24399 9.61418 3.42597C9.5388 3.60796 9.5 3.80302 9.5 4C9.5 4.19698 9.5388 4.39204 9.61418 4.57403C9.68956 4.75601 9.80005 4.92137 9.93934 5.06066C10.0786 5.19995 10.244 5.31044 10.426 5.38582C10.608 5.4612 10.803 5.5 11 5.5C11.197 5.5 11.392 5.4612 11.574 5.38582C11.756 5.31044 11.9214 5.19995 12.0607 5.06066C12.1999 4.92137 12.3104 4.75601 12.3858 4.57403C12.4612 4.39204 12.5 4.19698 12.5 4ZM11 13.5C11.3978 13.5 11.7794 13.342 12.0607 13.0607C12.342 12.7794 12.5 12.3978 12.5 12C12.5 11.6022 12.342 11.2206 12.0607 10.9393C11.7794 10.658 11.3978 10.5 11 10.5C10.6022 10.5 10.2206 10.658 9.93934 10.9393C9.65804 11.2206 9.5 11.6022 9.5 12C9.5 12.3978 9.65804 12.7794 9.93934 13.0607C10.2206 13.342 10.6022 13.5 11 13.5Z" fill="#0E0E0E"/>
</svg>
