<svg width="14" height="16" viewBox="0 0 14 16" fill="none" xmlns="http://www.w3.org/2000/svg">
<g clip-path="url(#clip0_613_116)">
<path d="M13.9998 6.55969C12.6241 6.56298 11.282 6.13392 10.1633 5.33313V10.9181C10.1629 11.9525 9.84674 12.9622 9.25706 13.812C8.66738 14.6619 7.83229 15.3115 6.86347 15.6739C5.89464 16.0364 4.83825 16.0944 3.83556 15.8402C2.83286 15.5861 1.93165 15.0319 1.25243 14.2517C0.573211 13.4716 0.148357 12.5026 0.0346788 11.4745C-0.0789997 10.4464 0.123915 9.40803 0.616291 8.49833C1.10867 7.58863 1.86704 6.85093 2.78999 6.38387C3.71294 5.91681 4.75649 5.74265 5.7811 5.88469V8.69375C5.31224 8.54627 4.80876 8.55071 4.34258 8.70644C3.87639 8.86217 3.47134 9.16123 3.18525 9.56089C2.89916 9.96056 2.74668 10.4404 2.74958 10.9319C2.75247 11.4234 2.9106 11.9014 3.20137 12.2977C3.49214 12.694 3.9007 12.9882 4.36868 13.1385C4.83667 13.2887 5.34016 13.2872 5.80725 13.1342C6.27434 12.9812 6.68115 12.6845 6.96957 12.2866C7.258 11.8886 7.4133 11.4096 7.41329 10.9181V0H10.1633C10.1614 0.232231 10.1808 0.464146 10.2214 0.692813C10.317 1.20328 10.5157 1.68888 10.8053 2.11992C11.095 2.55096 11.4696 2.91837 11.9061 3.19969C12.5272 3.61034 13.2553 3.82922 13.9998 3.82906V6.55969Z" fill="#0E0E0E"/>
</g>
<defs>
<clipPath id="clip0_613_116">
<rect width="14" height="16" fill="white"/>
</clipPath>
</defs>
</svg>
